# xmcd
#
# Track frame offsets:
#	150
#	20112
#	38715
#	61359
#	78416
#	95772
#	113003
#	131272
#	146991
#	157402
#	173135
#	184320
#	203355
#	220412
#	235978
#	255807
#	275616
#	292400
#	309393
#
# Disc length: 4286 seconds
#
# Revision: 1
# Processed by: cddbd v1.5.2PL0 Copyright (c) Steve Scherf et al.
# Submitted via: EasyCDDAExtractor 9.1.0.1
#
DISCID=2010bc13
DTITLE=Various Artist - LEGEND 2008 [CD 2)
DYEAR=2008
DGENRE=ENTEXNO
TTITLE0=ΒΑΣΙΛΗΣ ΣΚΟΥΛΑΣ and ΠΑΝΤΕΛΗΣ ΘΑΛΑΣΣΙΝΟΣ - ΑΝΕΜΟΥ ΠΑΡΑΖΑΛΗ
TTITLE1=ΘΑΝΟΣ ΠΑΠΑΝΙΚΟΛΑΟΥ and ΒΑΣΙΛΗΣ ΠΑΠΑΚΩΝΣΤΑΝΤΙΝΟΥ - ΤΑ ΦΩΤΑ ΑΝΑΒΟΥΝ ΣΤΗ ΣΚ
TTITLE1=ΗΝΗ
TTITLE2=ΚΩΣΤΑΣ ΜΑΚΕΔΩΝΑΣ - Ο ΤΡΙΤΟΣ ΑΝΘΡΩΠΟΣ (CONFESSA)
TTITLE3=ΜΑΝΟΣ ΞΥΔΟΥΣ - ΒΡΑΔΙΑΣΕ ΤΑ ΞΑΝΑΛΕΜΕ
TTITLE4=ΛΕΥΤΕΡΗΣ ΚΑΡΒΕΛΑΣ - ΝΑ Μ' ΑΡΝΗΘΕΙΣ
TTITLE5=ΜΑΡΙΑ ΣΠΥΡΟΠΟΥΛΟΥ - ΓΙΑ ΤΟ ΧΑΤΗΡΙ ΜΙΑΣ ΑΓΑΠΗΣ
TTITLE6=ΚΩΝΣΤΑΝΤΙΝΟΣ ΜΑΤΣΙΚΑΣ - ΛΕΙΠΕΙΣ ΤΡΕΛΑΙΝΟΜΑΙ
TTITLE7=ΟΔΥΣΣΕΑΣ ΝΙΚΟΛΟΠΟΥΛΟΣ - ΕΙΝΑΙ ΜΑΡΤΥΡΙΟ ΝΑ Μ' ΑΓΑΠΑΣ
TTITLE8=ΑΦΡΟΔΙΤΗ ΜΑΝΟΥ - ΜΑΥΡΟ ΒΕΛΟΥΔΟ
TTITLE9=ΛΟΥΚΙΑΝΟΣ ΚΗΛΑΗΔΟΝΗΣ - ΚΟΛΙΓΑ ΓΙΟΣ
TTITLE10=ΝΟΤΗΣ ΜΑΥΡΟΥΔΗΣ and ΠΑΝΑΓΙΩΤΗΣ ΜΑΡΓΑΡΗΣ - CANZONE ARRABBIATA
TTITLE11=ΓΙΑΝΝΗΣ ΕΜΜΑΝΟΥΗΛΙΔΗΣ - SANTE
TTITLE12=ΕΛΕΝΗ ΡΟΔΑ - ΘΕΛΩ ΝΑ ΣΟΥ ΡΙΞΩ ΜΙΑ ΓΡΟΘΙΑ
TTITLE13=ΜΑΝΩΛΗΣ ΜΗΤΣΙΑΣ - ΤΟ ΤΡΑΓΟΥΔΙ ΤΗΣ ΞΕΝΙΤΙΑΣ (ΦΕΓΓΑΡΙ ΜΑΓΙΑ ΜΟΥ 'ΚΑΝΕΣ)
TTITLE14=ΚΑΙΤΗ ΝΤΑΛΗ - ΤΟ ΓΚΑΡΣΟΝΙ (Σ' ΑΥΤΗ ΤΗ ΓΩΝΙΑ)
TTITLE15=ΟΡΧΗΣΤΡΙΚΟ - ΝΑΥΑΓΟΣ
TTITLE16=ΜΑΡΙΑ ΦΑΡΑΝΤΟΥΡΗ - ΓΙΑΝΝΗ ΜΟΥ ΤΟ ΜΑΝΤΙΛΙ ΣΟΥ
TTITLE17=ΕΣΤΟΥΔΙΑΝΤΙΝΑ and ΧΟΡΩΔΙΑ "ΕΛΛΑΔΑ" and ΜΠΑΜΠΗΣ ΤΣΕΡΤΟΣ - ΞΕΝΙΤΕΜΕΝΟ ΜΟΥ Π
TTITLE17=ΟΥΛΙ
TTITLE18="ΟΙ ΚΙΘΑΡΙΣΤΕΣ" and ΕΥΑΓΓΕΛΟΣ ΜΠΟΥΝΤΟΥΝΗΣ - ΕΛΑ ΠΑΡΕ ΜΟΥ ΤΗ ΛΥΠΗ
EXTD=
EXTT0=
EXTT1=
EXTT2=
EXTT3=
EXTT4=
EXTT5=
EXTT6=
EXTT7=
EXTT8=
EXTT9=
EXTT10=
EXTT11=
EXTT12=
EXTT13=
EXTT14=
EXTT15=
EXTT16=
EXTT17=
EXTT18=
PLAYORDER=
